<?xml version="1.0" standalone="no"?><!DOCTYPE svg PUBLIC "-//W3C//DTD SVG 1.1//EN" "http://www.w3.org/Graphics/SVG/1.1/DTD/svg11.dtd"><svg t="1668069773113" class="icon" viewBox="0 0 1024 1024" version="1.1" xmlns="http://www.w3.org/2000/svg" p-id="3988" xmlns:xlink="http://www.w3.org/1999/xlink" width="128" height="128"><path d="M802.133333 153.6a51.2 51.2 0 0 1 51.2 51.2v84.650667l-51.2-12.765867V204.8H221.866667v665.6h282.862933l15.616 51.2H221.866667a51.2 51.2 0 0 1-51.114667-48.196267L170.666667 870.4V204.8a51.2 51.2 0 0 1 51.2-51.2h580.266666z" fill="#1177DD" p-id="3989"></path><path d="M580.266667 870.4m25.6 0l221.866666 0q25.6 0 25.6 25.6l0 0q0 25.6-25.6 25.6l-221.866666 0q-25.6 0-25.6-25.6l0 0q0-25.6 25.6-25.6Z" fill="#AEBECE" p-id="3990"></path><path d="M349.866667 341.333333h221.866666a25.6 25.6 0 0 1 0 51.2h-221.866666a25.6 25.6 0 0 1 0-51.2zM349.866667 529.066667h191.522133a25.6 25.6 0 0 1 0 51.2H349.866667a25.6 25.6 0 0 1 0-51.2zM349.866667 716.8h153.6a25.6 25.6 0 0 1 0 51.2h-153.6a25.6 25.6 0 0 1 0-51.2z" fill="#AEBECE" p-id="3991"></path><path d="M392.533333 102.4h238.933334a68.266667 68.266667 0 0 1 68.266666 68.266667v51.2a34.133333 34.133333 0 0 1-34.133333 34.133333H358.4a34.133333 34.133333 0 0 1-34.133333-34.133333v-51.2a68.266667 68.266667 0 0 1 68.266666-68.266667z" fill="#1177DD" p-id="3992"></path><path d="M860.484267 361.0624l-99.362134-24.763733a51.2 51.2 0 0 0-62.071466 37.290666l-74.308267 298.069334a51.2 51.2 0 0 0 0.699733 27.323733l29.0304 95.197867c11.281067 36.9664 57.890133 48.5888 85.213867 21.230933l70.314667-70.4a51.2 51.2 0 0 0 13.448533-23.808l74.325333-298.069333a51.2 51.2 0 0 0-37.290666-62.071467z m-12.3904 49.681067l-74.325334 298.0864-70.314666 70.4-29.0304-95.1808 74.308266-298.069334 99.362134 24.763734z" fill="#1177DD" p-id="3993"></path></svg>