<?xml version="1.0" standalone="no"?><!DOCTYPE svg PUBLIC "-//W3C//DTD SVG 1.1//EN" "http://www.w3.org/Graphics/SVG/1.1/DTD/svg11.dtd"><svg t="1668069757717" class="icon" viewBox="0 0 1024 1024" version="1.1" xmlns="http://www.w3.org/2000/svg" p-id="3531" xmlns:xlink="http://www.w3.org/1999/xlink" width="128" height="128"><path d="M349.866667 674.133333a110.933333 110.933333 0 1 1 0 221.866667 110.933333 110.933333 0 0 1 0-221.866667z m392.533333 0a110.933333 110.933333 0 1 1 0 221.866667 110.933333 110.933333 0 0 1 0-221.866667z m-392.533333 51.2a59.733333 59.733333 0 1 0 0 119.466667 59.733333 59.733333 0 0 0 0-119.466667z m392.533333 0a59.733333 59.733333 0 1 0 0 119.466667 59.733333 59.733333 0 0 0 0-119.466667zM601.378133 750.933333a145.442133 145.442133 0 0 0-3.054933 51.217067h-104.379733a146.5856 146.5856 0 0 0-3.054934-51.2h110.4896zM409.6 221.866667a51.2 51.2 0 0 1 51.2 51.2v187.733333a34.133333 34.133333 0 0 0 34.133333 34.133333h426.666667a51.2 51.2 0 0 1 51.2 51.2v204.8a51.2 51.2 0 0 1-51.2 51.2l-35.1232 0.017067a146.5856 146.5856 0 0 0-3.054933-51.2L921.6 750.933333V546.133333H494.933333a85.333333 85.333333 0 0 1-85.333333-85.333333V273.066667h-119.466667l-119.466666 204.8v273.066666h38.178133a145.442133 145.442133 0 0 0-3.054933 51.217067L170.666667 802.133333a51.2 51.2 0 0 1-51.2-51.2V477.866667a51.2 51.2 0 0 1 6.980266-25.8048l119.466667-204.8A51.2 51.2 0 0 1 290.133333 221.866667h119.466667z" fill="#1177DD" p-id="3532"></path><path d="M307.2 324.266667h51.2l-85.333333 170.666666h-51.2zM273.066667 494.933333v167.048534A145.851733 145.851733 0 0 0 232.533333 699.733333H221.866667V494.933333h51.2z" fill="#AEBECE" p-id="3533"></path><path d="M836.266667 170.666667a102.4 102.4 0 0 1 102.4 102.4v68.266666a102.4 102.4 0 0 1-102.4 102.4H546.133333a34.133333 34.133333 0 0 1-34.133333-34.133333v-136.533333a102.4 102.4 0 0 1 102.4-102.4h221.866667z m0 51.2H614.4a51.2 51.2 0 0 0-51.2 51.2v119.466666h273.066667a51.2 51.2 0 0 0 51.114666-48.196266L887.466667 341.333333v-68.266666a51.2 51.2 0 0 0-51.2-51.2z" fill="#AEBECE" p-id="3534"></path></svg>