<?xml version="1.0" standalone="no"?><!DOCTYPE svg PUBLIC "-//W3C//DTD SVG 1.1//EN" "http://www.w3.org/Graphics/SVG/1.1/DTD/svg11.dtd"><svg t="1668069769585" class="icon" viewBox="0 0 1024 1024" version="1.1" xmlns="http://www.w3.org/2000/svg" p-id="3834" xmlns:xlink="http://www.w3.org/1999/xlink" width="128" height="128"><path d="M802.133333 102.4a51.2 51.2 0 0 1 51.2 51.2v282.7776l-51.2-20.48V153.6H221.866667v716.8h346.845866a345.856 345.856 0 0 0 58.709334 51.217067L221.866667 921.6a51.2 51.2 0 0 1-51.2-51.2V153.6a51.2 51.2 0 0 1 51.2-51.2z" fill="#1177DD" p-id="3835"></path><path d="M519.150933 241.595733l-99.362133-24.763733a51.2 51.2 0 0 0-62.071467 37.290667l-74.308266 298.069333a51.2 51.2 0 0 0 0.699733 27.323733l29.0304 95.197867c11.281067 36.9664 57.890133 48.5888 85.213867 21.230933l70.314666-70.4a51.2 51.2 0 0 0 13.448534-23.808l74.325333-298.069333a51.2 51.2 0 0 0-37.290667-62.071467z m-12.3904 49.681067l-74.325333 298.0864-70.314667 70.4-29.0304-95.1808 74.308267-298.069333 99.362133 24.763733z" fill="#1177DD" p-id="3836"></path><path d="M273.066667 750.933333m25.6 0l153.6 0q25.6 0 25.6 25.6l0 0q0 25.6-25.6 25.6l-153.6 0q-25.6 0-25.6-25.6l0 0q0-25.6 25.6-25.6Z" fill="#AEBECE" p-id="3837"></path><path d="M746.5472 448.802133l142.404267 56.968534c9.966933 3.9936 17.4592 12.458667 20.258133 22.818133C934.007467 621.226667 932.437333 701.013333 904.533333 768c-27.921067 67.0208-80.213333 116.394667-156.910933 148.189867a34.133333 34.133333 0 0 1-27.255467-0.512C641.467733 879.3088 589.073067 830.088533 563.2 768c-25.821867-61.952-27.2384-141.5168-4.283733-238.711467a34.133333 34.133333 0 0 1 20.5312-23.790933l141.738666-56.695467a34.133333 34.133333 0 0 1 25.361067 0z m-12.6976 50.0736l-127.112533 50.8416c-17.92 80.554667-16.827733 144.930133 1.672533 193.450667l2.048 5.137067c19.131733 45.909333 57.582933 83.968 117.572267 114.2272l6.894933 3.396266 6.144-2.7648c55.159467-25.617067 92.416-61.781333 113.800533-109.312l2.389334-5.546666c21.6064-51.831467 24.251733-114.705067 6.741333-189.5424l-2.0992-8.669867-128.0512-51.217067z" fill="#1177DD" p-id="3838"></path><path d="M733.866667 563.2a102.4 102.4 0 1 0 0 204.8 102.4 102.4 0 0 0 0-204.8z m0 51.2a51.2 51.2 0 1 1 0 102.4 51.2 51.2 0 0 1 0-102.4z" fill="#AEBECE" p-id="3839"></path></svg>