<?xml version="1.0" standalone="no"?><!DOCTYPE svg PUBLIC "-//W3C//DTD SVG 1.1//EN" "http://www.w3.org/Graphics/SVG/1.1/DTD/svg11.dtd"><svg t="1668069765908" class="icon" viewBox="0 0 1024 1024" version="1.1" xmlns="http://www.w3.org/2000/svg" p-id="3683" xmlns:xlink="http://www.w3.org/1999/xlink" width="128" height="128"><path d="M460.8 102.4c122.538667 0 221.866667 99.328 221.866667 221.866667 0 89.207467-52.650667 166.126933-128.580267 201.3696a322.833067 322.833067 0 0 1 98.645333 49.2544c-19.080533 6.314667-37.0688 15.069867-53.589333 25.9072A271.8208 271.8208 0 0 0 460.8 563.2c-150.818133 0-273.066667 122.248533-273.066667 273.066667 0 17.5104 1.655467 34.628267 4.778667 51.2H140.578133A326.656 326.656 0 0 1 136.533333 836.266667c0-146.670933 97.365333-270.592 230.980267-310.647467C291.584 490.3936 238.933333 413.4912 238.933333 324.266667c0-122.538667 99.328-221.866667 221.866667-221.866667z m0 51.2c-94.2592 0-170.666667 76.407467-170.666667 170.666667s76.407467 170.666667 170.666667 170.666666 170.666667-76.407467 170.666667-170.666666S555.0592 153.6 460.8 153.6z" fill="#1177DD" p-id="3684"></path><path d="M477.866667 750.933333v-17.066666a17.066667 17.066667 0 0 1 17.066666-17.066667h303.837867l-29.5424-17.066667a17.066667 17.066667 0 0 1-6.2464-23.313066l8.533333-14.779734a17.066667 17.066667 0 0 1 23.313067-6.2464l103.458133 59.733334a17.066667 17.066667 0 0 1 7.150934 21.521066l-0.904534 1.792-12.1344 20.992a17.066667 17.066667 0 0 1-14.779733 8.533334L494.933333 768a17.066667 17.066667 0 0 1-16.9472-15.069867L477.866667 750.933333z m409.6 85.333334v17.066666a17.066667 17.066667 0 0 1-15.069867 16.9472L870.4 870.4H566.545067l29.559466 17.066667a17.066667 17.066667 0 0 1 7.150934 21.538133l-0.904534 1.774933-8.533333 14.779734a17.066667 17.066667 0 0 1-23.313067 6.2464l-103.458133-59.733334a17.066667 17.066667 0 0 1-7.150933-21.521066l0.904533-1.792 12.1344-21.009067a17.066667 17.066667 0 0 1 14.779733-8.533333L870.4 819.2a17.066667 17.066667 0 0 1 16.9472 15.069867L887.466667 836.266667zM563.217067 392.533333A110.967467 110.967467 0 0 1 358.4 392.533333z" fill="#AEBECE" p-id="3685"></path></svg>